# xmcd CD database file
#
# Track frame offsets:
#	150
#	13783
#	28126
#	43846
#	61903
#	75746
#	88961
#	106861
#	123690
#	140053
#	155774
#	173733
#	187526
#	201503
#
# Disc length: 2843 seconds
#
# Revision: 0
# Processed by: cddbd v1.5.2PL0 Copyright (c) Steve Scherf et al.
# Submitted via: jetAudio 7
#
DISCID=c40b190e
DTITLE=Ken Mullan - Country Gospel
DYEAR=1997
DGENRE=Folk
TTITLE0=Jesus Died For Me
TTITLE1=I Dreamed About Mama Last Night
TTITLE2=How Can You Refuse Him Now
TTITLE3=New Star In The Sky
TTITLE4=God's Colouring Book
TTITLE5=I'd Rather Have Jesus
TTITLE6=Somebody Touched Me
TTITLE7=It Is No Secret
TTITLE8=This World Is Not My Home
TTITLE9=Why Me Lord
TTITLE10=First Fall Of Snow
TTITLE11=That's Where I Learned To Pray
TTITLE12=Take My Hand Precious Lord
TTITLE13=I Saw The Light
EXTD=YEAR: 1997 ID3G:  17
EXTT0=
EXTT1=
EXTT2=
EXTT3=
EXTT4=
EXTT5=
EXTT6=
EXTT7=
EXTT8=
EXTT9=
EXTT10=
EXTT11=
EXTT12=
EXTT13=
PLAYORDER=
